<svg width="98" height="90" viewBox="0 0 98 90" fill="none" xmlns="http://www.w3.org/2000/svg">
<ellipse opacity="0.1" cx="7.7998" cy="5.89806" rx="6.45996" ry="5.89806" fill="url(#paint0_linear)"/>
<path fill-rule="evenodd" clip-rule="evenodd" d="M55.3049 46.0835C46.7804 46.0835 39.8699 52.3929 39.8699 60.1759V60.2119C39.8699 67.9949 46.7804 74.3043 55.3049 74.3043H78.067C78.9172 74.3043 79.7515 74.2415 80.5644 74.1207L84.9743 78.0098C85.0942 78.1155 85.2544 78.1746 85.4211 78.1746C85.7763 78.1746 86.0642 77.9118 86.0642 77.5875L86.0645 72.2674C90.5232 69.7965 93.502 65.3218 93.502 60.2119V60.1759C93.502 52.3929 86.5915 46.0835 78.067 46.0835H55.3049Z" fill="#253368"/>
<path d="M59.0488 12.3204H26.548C14.3702 12.3204 4.49805 21.3339 4.49805 32.4525C4.49805 43.5711 14.3702 52.5845 26.548 52.5845H59.0488C71.2267 52.5845 81.0988 43.5711 81.0988 32.4525C81.0988 21.3339 71.2267 12.3204 59.0488 12.3204Z" fill="#4E5C93"/>
<path fill-rule="evenodd" clip-rule="evenodd" d="M15.1211 46.7284V57.2677C15.1211 57.731 15.5324 58.1065 16.0398 58.1065C16.2778 58.1065 16.5065 58.0222 16.6778 57.8714L25.1604 50.3986L15.1211 46.7284Z" fill="#4E5C93"/>
<path d="M28.0411 34.9689C30.0073 34.9689 31.6013 33.5136 31.6013 31.7184C31.6013 29.9233 30.0073 28.468 28.0411 28.468C26.0749 28.468 24.481 29.9233 24.481 31.7184C24.481 33.5136 26.0749 34.9689 28.0411 34.9689Z" fill="white"/>
<path d="M42.6261 34.9689C44.5923 34.9689 46.1862 33.5136 46.1862 31.7184C46.1862 29.9233 44.5923 28.468 42.6261 28.468C40.6599 28.468 39.0659 29.9233 39.0659 31.7184C39.0659 33.5136 40.6599 34.9689 42.6261 34.9689Z" fill="white"/>
<path d="M57.5558 34.9689C59.522 34.9689 61.1159 33.5136 61.1159 31.7184C61.1159 29.9233 59.522 28.468 57.5558 28.468C55.5895 28.468 53.9956 29.9233 53.9956 31.7184C53.9956 33.5136 55.5895 34.9689 57.5558 34.9689Z" fill="white"/>
<defs>
<linearGradient id="paint0_linear" x1="16.8038" y1="-17.8448" x2="8.62928" y2="13.4565" gradientUnits="userSpaceOnUse">
<stop stop-color="#5498FF"/>
<stop offset="0.515625" stop-color="#428EFF"/>
<stop offset="1" stop-color="#297FFF"/>
</linearGradient>
</defs>
</svg>
